<svg viewBox="0 0 58 18" fill="none" xmlns="http://www.w3.org/2000/svg">
<path d="M0.949308 14V0.909091H3.67232V5.83097H3.75542C3.87473 5.56676 4.04732 5.2983 4.27317 5.02557C4.50329 4.74858 4.80158 4.51847 5.16806 4.33523C5.5388 4.14773 5.99902 4.05398 6.54874 4.05398C7.26465 4.05398 7.92516 4.24148 8.53027 4.61648C9.13539 4.98722 9.61905 5.54759 9.98127 6.29759C10.3435 7.04332 10.5246 7.97869 10.5246 9.10369C10.5246 10.1989 10.3477 11.1236 9.99405 11.8778C9.64462 12.6278 9.16735 13.1967 8.56223 13.5845C7.96138 13.968 7.28809 14.1598 6.54235 14.1598C6.01394 14.1598 5.56436 14.0724 5.19363 13.8977C4.82715 13.723 4.52672 13.5036 4.29235 13.2393C4.05797 12.9709 3.879 12.7003 3.75542 12.4276H3.63397V14H0.949308ZM3.61479 9.09091C3.61479 9.67472 3.69576 10.1839 3.85769 10.6186C4.01962 11.0533 4.254 11.392 4.56081 11.6349C4.86763 11.8736 5.2405 11.9929 5.67942 11.9929C6.1226 11.9929 6.4976 11.8714 6.80442 11.6286C7.11124 11.3814 7.34348 11.0405 7.50115 10.6058C7.66309 10.1669 7.74405 9.66193 7.74405 9.09091C7.74405 8.52415 7.66522 8.02557 7.50755 7.59517C7.34988 7.16477 7.11763 6.82812 6.81081 6.58523C6.504 6.34233 6.12686 6.22088 5.67942 6.22088C5.23624 6.22088 4.86124 6.33807 4.55442 6.57244C4.25186 6.80682 4.01962 7.1392 3.85769 7.5696C3.69576 8 3.61479 8.5071 3.61479 9.09091ZM15.0645 0.909091V14H12.3415V0.909091H15.0645ZM17.2458 14V4.18182H19.9688V14H17.2458ZM18.6137 2.91619C18.2089 2.91619 17.8616 2.78196 17.5718 2.51349C17.2863 2.24077 17.1436 1.91477 17.1436 1.53551C17.1436 1.16051 17.2863 0.838778 17.5718 0.570312C17.8616 0.297585 18.2089 0.161221 18.6137 0.161221C19.0186 0.161221 19.3637 0.297585 19.6492 0.570312C19.939 0.838778 20.0839 1.16051 20.0839 1.53551C20.0839 1.91477 19.939 2.24077 19.6492 2.51349C19.3637 2.78196 19.0186 2.91619 18.6137 2.91619ZM24.8731 8.32386V14H22.1501V4.18182H24.7453V5.91406H24.8604C25.0777 5.34304 25.442 4.89133 25.9534 4.55895C26.4648 4.2223 27.0848 4.05398 27.8135 4.05398C28.4953 4.05398 29.0898 4.20312 29.5969 4.50142C30.104 4.79972 30.4981 5.22585 30.7794 5.77983C31.0606 6.32955 31.2013 6.9858 31.2013 7.74858V14H28.4782V8.23438C28.4825 7.63352 28.3291 7.16477 28.018 6.82812C27.7069 6.48722 27.2787 6.31676 26.7332 6.31676C26.3667 6.31676 26.0429 6.3956 25.7616 6.55327C25.4846 6.71094 25.2673 6.94105 25.1096 7.24361C24.9562 7.5419 24.8774 7.90199 24.8731 8.32386ZM35.8147 11.1747L35.8211 7.90838H36.2174L39.3623 4.18182H42.488L38.2629 9.11648H37.6173L35.8147 11.1747ZM33.3474 14V0.909091H36.0704V14H33.3474ZM39.4838 14L36.5945 9.72372L38.4099 7.79972L42.6734 14H39.4838ZM46.547 0.909091V14H43.824V0.909091H46.547ZM50.4094 17.6818C50.0642 17.6818 49.7403 17.6541 49.4378 17.5987C49.1395 17.5476 48.8923 17.4815 48.6963 17.4006L49.3099 15.3679C49.6295 15.4659 49.9172 15.5192 50.1729 15.5277C50.4328 15.5362 50.6565 15.4766 50.844 15.3487C51.0358 15.2209 51.1913 15.0036 51.3106 14.6967L51.4704 14.2812L47.9484 4.18182H50.8121L52.8447 11.392H52.947L54.9988 4.18182H57.8817L54.0656 15.0611C53.8824 15.5895 53.6331 16.0497 53.3177 16.4418C53.0067 16.8381 52.6125 17.1428 52.1352 17.3558C51.6579 17.5732 51.0827 17.6818 50.4094 17.6818Z" fill="currentColor" fill-opacity="0.9"/>
</svg>
